PathFileType	4	(X/Y/Z)	 s08c0403.trc
DataRate	CameraRate	NumFrames	NumMarkers	Units	OrigDataRate	OrigDataStartFrame	OrigNumFrames
200	200	4	50	mm	200	1501	2000
Frame#	Time	racr			lacr			c7			jug			rlel			rdr			llel			ldr			s2			lic			ric			lasi			rasi			rpsi			lpsi			rgt			lgt			rth1			rth2			rth3			rth4			rlfc			rmfc			rsh1			rsh2			rsh3			rsh4			rlmal			rmmal			rcal			rtoe			rmt5			lth1			lth2			lth4			lth3			llfc			lmfc			llmal			lmmal			lcal			lmt5			lsh1			lsh2			lsh3			lsh4			ltoe			SBIKE			LBIKE			RBIKE			
		X1	Y1	Z1	X2	Y2	Z2	X3	Y3	Z3	X4	Y4	Z4	X5	Y5	Z5	X6	Y6	Z6	X7	Y7	Z7	X8	Y8	Z8	X9	Y9	Z9	X10	Y10	Z10	X11	Y11	Z11	X12	Y12	Z12	X13	Y13	Z13	X14	Y14	Z14	X15	Y15	Z15	X16	Y16	Z16	X17	Y17	Z17	X18	Y18	Z18	X19	Y19	Z19	X20	Y20	Z20	X21	Y21	Z21	X22	Y22	Z22	X23	Y23	Z23	X24	Y24	Z24	X25	Y25	Z25	X26	Y26	Z26	X27	Y27	Z27	X28	Y28	Z28	X29	Y29	Z29	X30	Y30	Z30	X31	Y31	Z31	X32	Y32	Z32	X33	Y33	Z33	X34	Y34	Z34	X35	Y35	Z35	X36	Y36	Z36	X37	Y37	Z37	X38	Y38	Z38	X39	Y39	Z39	X40	Y40	Z40	X41	Y41	Z41	X42	Y42	Z42	X43	Y43	Z43	X44	Y44	Z44	X45	Y45	Z45	X46	Y46	Z46	X47	Y47	Z47	X48	Y48	Z48	X49	Y49	Z49	X50	Y50	Z50	
1501	7.5050	897.747493	1304.218300	-83.576356	837.970306	1345.501877	-412.031055	875.258488	1374.317433	-230.464726	779.959860	1247.559032	-227.374919	709.027186	1165.742288	104.753457	754.860503	935.408699	-37.965145	665.495702	1161.454306	-557.576403	759.602316	926.092747	-437.029133	286.077036	1276.869378	-265.376225	457.155471	1254.626256	-391.269988	420.224428	1243.900444	-76.748658	466.141425	1196.585442	-349.550391	427.353892	1195.472187	-97.630549	319.767965	1308.473484	-205.081058	332.279333	1314.846871	-299.944734	314.987882	1151.341055	-67.528384	396.329841	1135.763752	-433.541702	396.228921	995.791953	-44.536398	455.544238	930.057809	-36.508226	475.067196	845.441183	-42.620021	488.499969	947.192274	-36.840219	529.372474	736.528236	-48.424480	524.825819	724.466792	-161.178884	450.772175	628.560488	-24.961807	440.564088	540.447986	-41.954036	388.504665	472.214533	-50.800391	471.063978	532.589747	-68.552070	335.264503	362.766923	-62.752782	360.822580	381.115625	-148.273349	253.203756	353.643436	-111.854570	539.464591	268.915302	-96.282536	441.124884	259.429245	-34.839171	447.991137	1005.998877	-422.794648	495.963957	935.667529	-404.156802	524.721915	948.378599	-386.841861	504.192226	847.123958	-399.715296	502.705878	720.361091	-375.105076	475.336158	703.211377	-268.712992	139.553467	506.355487	-404.383926	168.421046	493.732286	-318.495088	90.254229	548.628272	-362.300567	130.302584	336.391070	-415.550844	398.606503	649.318419	-404.807211	336.695481	593.407126	-395.205395	251.750156	566.587627	-401.389994	346.594650	574.190423	-357.167686	192.072838	277.849960	-344.017428	-197.473040	923.510013	-221.252625	-5.699860	84.272113	-426.195830	-8.594016	80.492292	-27.820445	
1502	7.5100	898.046354	1306.281023	-86.362055	837.571551	1345.154936	-416.069838	875.446259	1375.641926	-234.177898	779.575231	1249.335678	-229.892814	709.814542	1167.738994	102.351557	755.495731	935.461082	-37.936005	666.806250	1159.181899	-553.517331	758.784504	926.163512	-437.445782	285.296888	1275.204737	-262.998473	455.713618	1254.064640	-389.931629	421.863274	1241.589888	-75.456780	465.593119	1196.244149	-348.301234	429.176659	1193.446669	-97.235611	319.459821	1306.006295	-202.923271	331.077138	1313.608365	-297.828730	315.997918	1146.961807	-66.884830	396.208715	1135.617665	-432.321218	394.258737	989.808063	-45.175171	452.113332	922.712238	-37.888317	469.973200	837.862869	-45.199571	485.473850	939.052100	-38.017348	522.256816	728.674912	-51.350587	516.700889	716.539852	-163.570326	445.059672	620.012088	-26.844166	436.024604	531.726594	-42.893828	384.855979	462.811079	-51.876608	466.492282	524.516455	-69.561371	332.467477	353.245855	-62.648320	357.482149	370.878282	-148.879381	250.415031	344.590924	-111.774935	536.139370	257.563793	-96.782032	437.888319	248.964013	-35.190844	449.475209	1006.497900	-421.178459	498.499446	937.124916	-401.869844	527.249277	950.272908	-383.294937	508.527349	848.835427	-397.738262	509.507267	723.288802	-371.857291	481.215212	706.076577	-265.724799	142.998845	516.458625	-403.377991	171.279118	503.856784	-316.665554	93.391869	558.670893	-361.620517	133.785069	347.070076	-415.562831	404.771152	654.347379	-402.092774	341.662015	599.715425	-392.971469	256.322285	574.452361	-399.619720	351.116440	580.165409	-355.057160	195.760364	288.305748	-344.116098	-197.536509	923.388230	-221.703506	-5.740726	84.074766	-426.135450	-8.629870	80.339030	-27.981266	
1503	7.5150	898.846297	1308.539930	-89.825775	837.333486	1344.515495	-419.706543	875.597278	1376.670894	-238.041332	780.070617	1250.140617	-232.423555	710.703244	1169.641379	99.790978	756.018648	935.402209	-38.082974	667.660742	1157.080497	-550.641975	758.330022	926.032820	-437.764279	284.917183	1273.635316	-260.385814	454.195216	1253.431915	-388.412362	423.751727	1239.466776	-74.110798	464.872531	1195.936971	-346.884101	431.184054	1191.203422	-96.887254	319.424730	1303.511003	-200.160653	329.915853	1312.323076	-295.233178	317.048437	1142.490123	-65.832003	395.614140	1135.469652	-430.974236	392.446931	983.904488	-45.750339	448.750204	915.283537	-39.493071	464.687836	830.206757	-47.916947	482.479998	931.042138	-39.523385	514.812502	720.568340	-54.437731	507.819276	708.671692	-166.253208	438.769354	611.649899	-28.283965	430.854893	523.230457	-45.036986	380.576481	453.590288	-52.953560	461.107803	516.426691	-71.410916	329.201930	343.868944	-62.634913	353.634685	361.203194	-149.198944	247.196178	335.804694	-111.670952	532.127886	246.404059	-97.485888	434.065515	238.786821	-35.621793	450.663588	1007.059217	-419.157307	500.930855	938.674008	-399.636980	529.308258	952.362477	-380.968979	512.714916	850.561578	-395.541025	516.268504	726.521879	-368.826230	487.214547	709.005715	-263.059565	146.819581	526.434066	-402.560875	174.698545	513.341338	-315.722557	96.997476	569.176779	-361.873917	138.014425	357.096274	-415.295035	410.945237	659.484373	-399.528624	346.757573	605.911273	-390.860049	261.022294	582.344350	-397.976038	355.607652	585.990241	-352.767310	200.228685	298.655465	-344.161264	-197.670102	923.389209	-222.163825	-5.764062	83.990981	-426.195157	-8.630094	80.460098	-27.909723	
1504	7.5200	899.242494	1311.081637	-92.719807	837.043468	1343.632767	-423.448620	875.743464	1377.682740	-242.176490	779.820488	1251.532408	-234.711064	711.444318	1171.581322	97.283498	756.436410	935.229005	-38.327614	667.630308	1155.322739	-549.917527	757.948308	925.860355	-438.307870	284.233107	1272.048498	-257.145953	452.569566	1252.854192	-387.026152	425.802209	1237.136911	-72.796324	463.925075	1195.734581	-345.514438	433.379837	1188.734655	-96.590856	319.487304	1301.170376	-196.983236	328.786285	1311.152613	-292.584456	317.986178	1137.720981	-64.658689	394.544349	1135.297992	-429.442821	390.775709	978.052462	-46.221519	445.410011	907.981191	-41.215577	459.593131	822.605622	-50.673005	479.493257	922.709599	-41.286471	507.116685	712.836686	-57.756723	498.865785	700.936284	-168.732784	432.051002	603.407800	-30.396680	424.956559	514.917316	-46.358591	375.686085	444.604354	-54.077966	455.173777	508.524819	-73.376414	325.368508	334.977226	-62.422216	349.279255	351.779224	-149.491808	243.400849	327.433671	-111.490654	527.603866	235.435250	-98.279289	429.625801	228.861486	-35.945848	451.578010	1007.749157	-417.167410	503.445011	940.351447	-397.537013	531.625843	954.746574	-378.522160	517.009019	852.636433	-393.266565	523.076433	729.967309	-365.975608	493.257617	712.001997	-260.442758	150.800592	536.154548	-401.557193	178.614797	522.422648	-315.559954	100.289470	578.309328	-360.907614	142.947165	367.087833	-415.253297	417.101384	664.695217	-397.048720	351.951253	612.211987	-388.938859	265.894555	590.101612	-396.354972	369.984383	600.026079	-362.835686	205.441994	308.934460	-344.140925	-197.859545	923.090634	-222.795092	-5.766357	83.907209	-426.236939	-8.653509	80.465171	-27.934905	
